<svg version="1.2" xmlns="http://www.w3.org/2000/svg" xmlns:xlink="http://www.w3.org/1999/xlink" overflow="visible" preserveAspectRatio="none" viewBox="0 0 32 32" xml:space="preserve" y="0px" x="0px" id="Camada_1_1552325553705" width="30" height="30"><g transform="translate(1, 1)"><style type="text/css">
	.st0_1552325553705{fill:#464646;}
	.st1{fill:#444444;}
</style><path d="M21.3,19.1v-6.4c0-3.5-2.8-6.3-6.3-6.3s-6.3,2.8-6.3,6.3v6.4H7v1.4h4.2c0.3,1.8,1.9,3.1,3.7,3.1&#10;&#9;c1.8,0,3.4-1.3,3.7-3.1H23v-1.4H21.3z M17.3,20.5c-0.3,1-1.2,1.6-2.2,1.6c-1,0-1.9-0.7-2.2-1.6H17.3z M19.9,12.7v6.4h-9.8v-6.4&#10;&#9;c0-2.7,2.2-4.9,4.9-4.9S19.9,10,19.9,12.7z" class="st0_1552325553705" vector-effect="non-scaling-stroke" style="fill: rgb(255, 255, 255);"/></g></svg>