<svg version="1.2" xmlns="http://www.w3.org/2000/svg" xmlns:xlink="http://www.w3.org/1999/xlink" overflow="visible" preserveAspectRatio="none" viewBox="0 0 24 24" width="22" height="22"><g><path xmlns:default="http://www.w3.org/2000/svg" id="flag-o" d="M19.66,13.55c-0.92,0.57-1.97,0.91-3.05,1c-0.36,0.01-0.72-0.07-1.05-0.23l-0.29-0.15l-0.86-0.41l-0.8-0.32  c-0.32-0.12-0.66-0.21-1-0.27c-0.36-0.05-0.72-0.08-1.08-0.08C9.96,13.14,8.41,13.53,7,14.23V8c1.27-0.78,2.71-1.23,4.2-1.32  C11.83,6.69,12.45,6.8,13.05,7c0.66,0.22,1.3,0.49,1.92,0.8c0.47,0.23,0.99,0.34,1.51,0.33c1.13-0.05,2.22-0.38,3.19-0.95v6.41l0,0  L19.66,13.55z M5.66,5.34C5.66,4.61,5.07,4.01,4.34,4c0,0,0,0,0,0C3.6,3.99,3,4.59,3,5.32c0,0.01,0,0.01,0,0.02  C3,5.57,3.07,5.8,3.19,6c0.12,0.2,0.28,0.36,0.48,0.48v13.18c-0.01,0.18,0.12,0.33,0.3,0.34c0.01,0,0.02,0,0.03,0h0.67  c0.18,0.01,0.32-0.13,0.33-0.31c0-0.01,0-0.02,0-0.03V6.48C5.2,6.36,5.37,6.2,5.49,6c0.12-0.2,0.18-0.43,0.18-0.67l0,0L5.66,5.34z   M21,6c0-0.23-0.12-0.45-0.32-0.57c-0.2-0.12-0.45-0.12-0.65,0l-0.32,0.18c-0.96,0.66-2.07,1.06-3.23,1.17  c-0.32,0.01-0.64-0.06-0.93-0.2c-0.7-0.35-1.43-0.65-2.18-0.9c-1.23-0.38-2.54-0.42-3.79-0.12C9.04,5.66,8.51,5.81,8,6  C7.51,6.21,7.12,6.39,6.81,6.54C6.5,6.69,6.23,6.84,6,7C5.8,7.12,5.68,7.34,5.68,7.57v7.73c-0.01,0.24,0.12,0.46,0.33,0.58  c0.1,0.05,0.22,0.08,0.33,0.08c0.12,0,0.24-0.03,0.34-0.09c0.75-0.44,1.55-0.8,2.38-1.06c0.79-0.28,1.61-0.44,2.45-0.46  c0.4,0,0.8,0.05,1.19,0.15c0.32,0.08,0.64,0.18,0.95,0.3c0.24,0.11,0.57,0.27,1,0.5L15,15.48c0.51,0.25,1.08,0.37,1.65,0.36  c1.36-0.09,2.67-0.51,3.84-1.21l0.18-0.09c0.22-0.11,0.35-0.35,0.33-0.59V6L21,6z" style="fill: rgb(255, 255, 255);" vector-effect="non-scaling-stroke"/></g></svg>