<svg version="1.2" xmlns="http://www.w3.org/2000/svg" xmlns:xlink="http://www.w3.org/1999/xlink" overflow="visible" preserveAspectRatio="none" viewBox="0 0 520 526" xml:space="preserve" y="0px" x="0px" id="Layer_1_1552325553697" width="80" height="80"><g transform="translate(1, 1)"><style type="text/css">
	.st0_1552325553697{fill:#FFFFFF;}
</style><path d="M259.3,272.2c-75.3,0-150.7,0-226,0c-7.1,0-7.1,0-7.1,7.2c0,70,0,140,0,210c0,7.2,0,7.2,7,7.2&#10;&#9;c150.5,0,301,0,451.5,0c7.1,0,7.1,0,7.1-7.1c0-70,0-140,0-210c0-7.2,0-7.2-7.5-7.2C409.3,272.2,334.3,272.2,259.3,272.2z" class="st0_1552325553697" vector-effect="non-scaling-stroke"/><path d="M259.5,30.3c-75.5,0-151,0-226.5,0c-6.8,0-6.8,0-6.8,6.9c0,70.2,0,140.3,0,210.5c0,6.9,0,6.9,6.8,6.9&#10;&#9;c150.7,0,301.3,0,452,0c6.8,0,6.8,0,6.8-6.9c0-70,0-140,0-210c0-7.4,0-7.4-7.3-7.4C409.5,30.3,334.5,30.3,259.5,30.3z" class="st0_1552325553697" vector-effect="non-scaling-stroke"/><g>
	<path d="M509.4,263.9c0,79.8,0,159.6,0,239.5c0,9.6-1.1,10.7-10.5,10.7c-159.8,0-319.6,0-479.4,0c-9.6,0-10.7-1.1-10.7-10.5&#10;&#9;&#9;c0-160.1,0-320.3,0-480.4c0-9.3,1.2-10.4,10.3-10.4c160,0,320,0,479.9,0c9.4,0,10.5,1.1,10.5,10.7&#10;&#9;&#9;C509.4,103.6,509.4,183.8,509.4,263.9z M259.3,272.2c-75.3,0-150.7,0-226,0c-7.1,0-7.1,0-7.1,7.2c0,70,0,140,0,210&#10;&#9;&#9;c0,7.2,0,7.2,7,7.2c150.5,0,301,0,451.5,0c7.1,0,7.1,0,7.1-7.1c0-70,0-140,0-210c0-7.2,0-7.2-7.5-7.2&#10;&#9;&#9;C409.3,272.2,334.3,272.2,259.3,272.2z M259.5,30.3c-75.5,0-151,0-226.5,0c-6.8,0-6.8,0-6.8,6.9c0,70.2,0,140.3,0,210.5&#10;&#9;&#9;c0,6.9,0,6.9,6.8,6.9c150.7,0,301.3,0,452,0c6.8,0,6.8,0,6.8-6.9c0-70,0-140,0-210c0-7.4,0-7.4-7.3-7.4&#10;&#9;&#9;C409.5,30.3,334.5,30.3,259.5,30.3z" vector-effect="non-scaling-stroke"/>
	<path d="M177.6,347.5c3.7-8.4,7-15.7,10.2-23c1-2.3,2.1-4.6,3.1-6.8c1.2-2.7,3.1-4.4,6.2-3.8c3.4,0.6,4,3.1,4,6c0,2.5,0,5,0,7.5&#10;&#9;&#9;c0,13.8,0,27.7,0,41.5c0,1.3,0,2.7,0,4c-0.1,2.9-0.9,5.5-4.5,5.3c-3.3-0.2-3.9-2.7-3.9-5.4c0-10.7,0-21.3,0-32c0-1.6,0-3.2-0.8-4.9&#10;&#9;&#9;c-2.8,6.5-5.7,13-8.5,19.5c-1.1,2.5-2.1,5.1-5.4,5.2c-3.5,0.1-4.8-2.6-6-5.2c-2.9-6.5-5.8-13-9.7-19.5c0,6.9,0,13.7,0,20.6&#10;&#9;&#9;c0,5.2,0,10.3,0,15.5c0,2.9,0,6.1-4,6.2c-4.3,0.1-4.4-3.3-4.4-6.4c-0.1-7.7,0-15.3,0-23c0-8.8,0-17.7,0-26.5c0-3.2-0.7-7.1,3.7-8.3&#10;&#9;&#9;c4.5-1.2,6.1,2.3,7.5,5.6C169.1,328.5,173.1,337.4,177.6,347.5z" vector-effect="non-scaling-stroke"/>
	<path d="M73.4,426.3c3.8-8.6,7.5-16.8,11.1-25c0.6-1.4,1.2-2.7,1.8-4.1c1.3-2.8,3.5-4,6.5-3.4c3.3,0.6,3.5,3.1,3.5,5.7&#10;&#9;&#9;c0,12.3,0,24.7,0,37c0,5,0,10,0,15c0,3,0.2,6.6-4.1,6.5c-4.1-0.1-4.1-3.7-4.2-6.7c0-9.8,0-19.7,0-29.5c0-1.6,0-3.3-1.1-5.3&#10;&#9;&#9;c-2.6,5.8-5.1,11.7-7.7,17.5c-1.3,2.8-1.9,6.3-6.1,6.2c-4.1-0.1-4.9-3.5-6.2-6.3c-2.9-6.3-5.7-12.7-9.5-19c0,7.8,0,15.7,0,23.5&#10;&#9;&#9;c0,5,0,10,0,15c0,2.7-1,4.7-4,4.6c-2.7-0.1-3.6-2-3.6-4.5c0-18.3,0-36.7,0-55c0-2.4,0.7-4.3,3.4-4.8c3-0.5,5.1,0.8,6.4,3.6&#10;&#9;&#9;c3.6,8,7.2,16.1,10.9,24.1C71,422.9,71.3,424.6,73.4,426.3z" vector-effect="non-scaling-stroke"/>
	<path d="M181,416c0,5.9,0,11.9,0,17.8c0,5.5,0.1,11,0,16.5c-0.1,3.2,0.6,7.5-4.2,7.6c-5,0.1-4.1-4.4-4.1-7.5c-0.1-16.7,0-33.3,0-50&#10;&#9;&#9;c0-2.9-0.2-5.9,3.6-6.7c3.6-0.7,5.6,1.2,6.9,4.3c5.5,12.6,11.1,25.3,17.5,37.9c0-1.8,0-3.7,0-5.5c0-10.5,0-21,0.1-31.5&#10;&#9;&#9;c0-2.7,1-5.1,4.2-5.1c3.3-0.1,4.1,2.3,4.2,5.1c0,17.8,0,35.6,0,53.5c0,2.7-0.7,5.1-3.8,5.7c-3.3,0.7-5.4-1.2-6.6-4&#10;&#9;&#9;c-4.4-9.9-8.7-19.8-13.1-29.7c-1.3-2.8-2.5-5.6-3.8-8.5C181.6,415.9,181.3,415.9,181,416z" vector-effect="non-scaling-stroke"/>
	<path d="M275,346.3c0-8.3-0.1-16.7,0-25c0.1-5.6,1.6-7.3,7.1-7.4c5-0.1,10-0.3,14.9,0.5c7.8,1.4,13.4,6.5,15,14.1&#10;&#9;&#9;c1.6,7.5-1.2,15.3-7.7,19.1c-3.7,2.1-3.4,4-1.8,7.1c2.6,4.9,4.8,9.9,7.1,14.9c1.3,2.8,3.5,6.2-0.8,8.1c-4.1,1.8-5.4-1.9-6.8-4.8&#10;&#9;&#9;c-2.9-6-5.9-12-8.5-18.1c-1.6-3.7-4.2-4.5-7.6-3.8c-3.8,0.7-2.5,3.8-2.5,6.1c-0.2,5.3-0.1,10.7-0.1,16c0,2.6-0.7,4.8-3.7,4.9&#10;&#9;&#9;c-3.2,0.2-4.2-2.1-4.5-4.8c0-0.3-0.1-0.7-0.1-1C275,363.6,275,354.9,275,346.3C275,346.3,275,346.3,275,346.3z M290.7,342.6&#10;&#9;&#9;c8.9,0,12.9-2.8,13.1-9.3c0.3-7.1-3.7-11-11.6-11c-10.3-0.1-8.8-0.9-9,9.1c0,1.3,0,2.7,0,4C283.3,342.6,283.3,342.6,290.7,342.6z" vector-effect="non-scaling-stroke"/>
	<path d="M368.1,373.9c0,2.1-0.8,3.5-2.6,4.1c-2.2,0.6-4.1,0-5-2.2c-1.1-2.6-2.1-5.3-2.7-8c-0.7-3.3-2.3-4.8-5.8-4.6&#10;&#9;&#9;c-4.1,0.3-8.3,0.2-12.5,0c-3.2-0.2-5,1.1-5.7,4.2c-0.6,2.4-1.6,4.7-2.3,7.1c-0.9,2.8-2.6,4.4-5.6,3.4c-2.8-0.9-2.9-3.4-2.2-5.8&#10;&#9;&#9;c2.9-9.5,5.9-19.1,8.9-28.6c2.6-8.4,5.3-16.8,8-25.2c0.8-2.7,2.3-4.5,5.3-4.4c2.9,0,4.5,1.9,5.3,4.5c5.6,18,11.1,35.9,16.7,53.9&#10;&#9;&#9;C368,372.8,368.1,373.5,368.1,373.9z M345.8,329.3c-1.8,5.6-3.3,10-4.6,14.4c-3.4,12-6,10.8,8.5,11c3.2,0,3.7-1.3,2.9-4&#10;&#9;&#9;C350.4,344.1,348.3,337.5,345.8,329.3z" vector-effect="non-scaling-stroke"/>
	<path d="M403.2,393.6c2.7,0,4.2,1.6,5,4.1c5.6,17.9,11.2,35.9,16.7,53.8c0.8,2.5,0.9,5.2-2.2,6.2c-3.4,1.1-4.7-1.3-5.7-4&#10;&#9;&#9;c-4-10.6-4-10.6-15.3-10.6c-1.5,0-3,0.1-4.5,0c-3.6-0.4-5.6,1.2-6.4,4.7c-0.6,2.6-1.5,5.1-2.5,7.6c-0.8,2.1-2.5,3.1-4.8,2.5&#10;&#9;&#9;c-2.3-0.6-3-2.5-2.7-4.7c0.2-1.3,0.5-2.6,0.9-3.9c5.2-16.7,10.4-33.3,15.5-50C398.2,396.3,399.3,393.5,403.2,393.6z M403.6,411&#10;&#9;&#9;c-0.4,0-0.9,0.1-1.3,0.1c-1.3,4.3-2.6,8.5-4,12.8c-3.6,11.8-3.5,11.9,9,10.7c0.2,0,0.3,0,0.5,0c1.9,0,2.8-0.8,2.2-2.8&#10;&#9;&#9;C407.9,424.8,405.7,417.9,403.6,411z" vector-effect="non-scaling-stroke"/>
	<path d="M139.2,373.2c0.1,2.6-0.6,4.2-2.7,4.8c-2.2,0.6-4-0.2-4.9-2.4c-1.1-2.9-2.1-6-3-9c-0.7-2.5-2.1-3.5-4.7-3.4&#10;&#9;&#9;c-4.7,0.1-9.3,0.1-14,0c-2.9-0.1-4.2,1.2-4.9,3.9c-0.6,2.6-1.6,5.1-2.4,7.6c-0.9,2.5-2.5,4.1-5.3,3.3c-3-0.8-3.1-3.3-2.4-5.7&#10;&#9;&#9;c2.1-7.2,4.4-14.3,6.6-21.5c3.3-10.6,6.7-21.3,9.9-31.9c0.8-2.8,2-5,5.2-5.1c3.4-0.1,4.8,2.2,5.7,5.2c5.2,17,10.6,34,15.9,51&#10;&#9;&#9;C138.7,371.2,139,372.5,139.2,373.2z M117.5,331c-0.4,0-0.8,0-1.1,0c-1.4,4.4-2.8,8.7-4.1,13.1c-3.6,12-5,10.4,8.3,10.6&#10;&#9;&#9;c0.5,0,1,0,1.5-0.1c1.6-0.1,2.6-0.8,2-2.5C121.9,345.1,119.7,338,117.5,331z" vector-effect="non-scaling-stroke"/>
	<path d="M215.8,373.4c0.2-0.8,0.5-1.9,0.8-3c5.3-17,10.6-34,15.9-51c0.9-2.8,1.8-5.5,5.4-5.6c3.8-0.1,5,2.6,5.9,5.7&#10;&#9;&#9;c5.2,17,10.5,34,15.8,51c0.3,1.1,0.7,2.2,0.8,3.4c0.2,2.1-0.6,3.6-2.7,4.2c-2,0.5-3.7-0.1-4.7-2c-0.5-1-0.9-2.1-1.3-3.2&#10;&#9;&#9;c-3.5-10.9-1-9.5-13.1-9.6c-0.3,0-0.7,0-1,0c-12.2,0.2-9.3-1.5-13.2,9.6c-0.4,1.1-0.7,2.2-1.3,3.2c-1,1.9-2.7,2.5-4.6,1.9&#10;&#9;&#9;C216.4,377.4,215.7,375.8,215.8,373.4z M238.7,331.1c-0.4,0-0.8,0.1-1.2,0.1c-2.1,6.8-4.2,13.6-6.3,20.4c-0.5,1.7-0.4,3.1,1.8,3.1&#10;&#9;&#9;c3.5,0,7,0.1,10.4,0c1.7,0,2.3-1.1,1.8-2.7C243,344.9,240.8,338,238.7,331.1z" vector-effect="non-scaling-stroke"/>
	<path d="M144.7,419.4c0-6.7,0-13.3,0-20c0-2.9,0.4-5.7,4.1-5.6c3.5,0.1,4.2,2.8,4.3,5.6c0,13.7,0.2,27.3-0.1,41&#10;&#9;&#9;c-0.2,8-4.1,14.1-12,16.8c-7.4,2.5-14.1,1.1-19.8-4.5c-4.1-4.1-5-9.3-5.1-14.7c-0.1-12.3-0.1-24.6,0-37c0-1.6,0.3-3.3,0.8-4.9&#10;&#9;&#9;c0.6-1.8,2.1-2.5,4-2.4c1.9,0.2,3.1,1.3,3.4,3.2c0.2,1.5,0.2,3,0.2,4.5c0,12.5-0.1,25,0.1,37.5c0.1,6.7,3.4,10.6,9.1,10.9&#10;&#9;&#9;c6.6,0.4,10.9-3.3,11.1-9.9C144.8,433,144.6,426.2,144.7,419.4C144.6,419.4,144.7,419.4,144.7,419.4z" vector-effect="non-scaling-stroke"/>
	<path d="M257.7,425.7c0-5.2-0.1-10.3,0-15.5c0.3-8.5,6.9-15.6,15.2-16.6c10-1.2,18.1,3.9,20.5,12.7c0.7,2.6,1,5.2-2,6.4&#10;&#9;&#9;c-3.3,1.3-4.7-1-5.9-3.7c-2.6-6.1-6.7-8.2-12.7-6.8c-4.3,1-6.8,4.8-6.9,10.8c-0.1,8.7-0.1,17.3,0,26c0.1,6.2,2.7,9.8,7.6,10.7&#10;&#9;&#9;c5.6,1,9.6-1.1,11.8-6.7c1.1-2.7,2.4-5.2,5.7-4c3.6,1.2,2.9,4.3,2,7.1c-2.7,8.4-11.3,13.4-20.6,12c-8.3-1.2-14.7-8.3-14.9-16.9&#10;&#9;&#9;C257.6,436,257.7,430.8,257.7,425.7z" vector-effect="non-scaling-stroke"/>
	<path d="M339.7,426.2c0-8.5,0-17,0-25.5c0-5.6,1.2-6.9,6.6-7c5.3,0,10.7-0.5,15.9,0.8c8.5,2.1,14.5,10.2,13.6,18.5&#10;&#9;&#9;c-1,9.5-8,16-17.2,16.3c-11.3,0.3-11.3,0.3-11.3,11.4c0,4.2,0,8.3,0,12.5c0,2.6-0.8,4.8-3.8,4.8c-3,0-3.9-2.1-3.9-4.7&#10;&#9;&#9;C339.7,444.2,339.7,435.2,339.7,426.2C339.7,426.2,339.7,426.2,339.7,426.2z M347.4,411.9c0,9.6,0,9.6,5.9,9.7&#10;&#9;&#9;c9,0,14.1-3.4,14.3-9.6c0.2-6.1-4.9-9.8-13.4-9.8C347.4,402.2,347.4,402.2,347.4,411.9z" vector-effect="non-scaling-stroke"/>
	<path d="M56.3,345.9c0,4.7-0.1,9.3,0,14c0.2,5.7,3.1,9.3,8.3,10.3c4.6,0.9,8.8-1.6,11.1-6.5c0.5-1.1,0.8-2.2,1.5-3.2&#10;&#9;&#9;c1-1.5,2.5-2.1,4.4-1.6c1.6,0.5,2.4,1.7,2.7,3.3c0.3,1.9-0.3,3.6-1,5.3c-3,7.3-9.8,11.1-19.1,10.6c-7.2-0.4-13.8-5.6-15.4-12.8&#10;&#9;&#9;c-2.1-9.4-0.6-18.9-0.9-28.4c-0.1-3.7-0.1-7.3,1-10.9c2.5-7.6,9.2-12.5,17.4-12.5c8.1,0,14.8,4.6,17.3,11.9&#10;&#9;&#9;c0.9,2.8,1.8,5.9-1.6,7.4c-3.6,1.6-4.9-1.2-6.1-4c-2.4-5.7-6.7-7.9-12.4-6.6c-4.4,1-7.1,4.9-7.2,10.6&#10;&#9;&#9;C56.2,337.3,56.3,341.6,56.3,345.9z" vector-effect="non-scaling-stroke"/>
	<path d="M439.8,425.6c0-8.5,0-17,0-25.5c0-3.2,0.5-6.5,4.6-6.3c3.9,0.2,3.8,3.5,3.8,6.4c0,14.7,0.1,29.3-0.1,44&#10;&#9;&#9;c0,4,1.1,5.8,5.3,5.5c4.6-0.3,9.3-0.1,14,0c2.5,0,4.8,0.7,5.1,3.6c0.2,3.2-2,4.5-4.8,4.5c-7.5,0.1-15,0.1-22.5,0&#10;&#9;&#9;c-4.3-0.1-5.6-2.9-5.5-6.8C439.8,442.5,439.8,434,439.8,425.6z" vector-effect="non-scaling-stroke"/>
	<path d="M238.3,426c0,8.5,0,17,0,25.5c0,3.1-0.2,6.5-4.4,6.4c-3.8-0.1-4-3.3-4-6.3c0-17.1,0-34.3,0-51.4c0-3.1,0.3-6.5,4.5-6.4&#10;&#9;&#9;c3.9,0.1,4,3.4,4,6.3C238.3,408.7,238.3,417.4,238.3,426z" vector-effect="non-scaling-stroke"/>
	<path d="M318.3,425.9c0,8.6,0,17.3,0,25.9c0,2.9,0,6.2-4,6.1c-3.8,0-4.3-3.3-4.3-6.1c-0.1-14.5-0.1-28.9-0.1-43.4&#10;&#9;&#9;c0-3.3,0-6.7,0.2-10c0.2-2.7,1.4-5,4.6-4.6c3,0.3,3.5,2.6,3.5,5.2C318.3,407.9,318.3,416.9,318.3,425.9z" vector-effect="non-scaling-stroke"/>
	<path d="M118.2,306c-4.2,0-8.3,0.1-12.5,0c-2.7-0.1-5.1-1-5-4.3c0.1-3,2.2-3.9,4.8-4c8.5-0.1,16.9-0.1,25.4,0c2.8,0,5.1,1.1,5,4.3&#10;&#9;&#9;c-0.1,3.2-2.6,3.9-5.3,4C126.6,306.1,122.4,306.1,118.2,306C118.2,306.1,118.2,306.1,118.2,306z" vector-effect="non-scaling-stroke"/>
	<path d="M470.3,141.8c0,8.7,0,17.3,0,26c-0.1,18.4-14.2,31.8-32.7,32.6c-18.9,0.8-34.9-13.8-34.9-32.6c0-17.8-0.1-35.7,0-53.5&#10;&#9;&#9;c0.1-18,15.3-32.5,33.8-32.5c18.6,0,33.6,14.4,33.7,32.4C470.4,123.4,470.3,132.6,470.3,141.8z M453.6,141.6&#10;&#9;&#9;C453.6,141.6,453.6,141.6,453.6,141.6c0-8.2,0.1-16.3,0-24.5c-0.1-7.5-2.7-13.7-10.2-16.8c-12.1-5-23.7,3.1-24,17.3&#10;&#9;&#9;c-0.3,15.8-0.2,31.6,0,47.4c0,4.9,1.1,9.6,4.7,13.3c5.2,5.4,11.5,6.4,18.4,4.3c6.8-2.1,10.9-8,11.1-16.1&#10;&#9;&#9;C453.8,158.3,453.6,149.9,453.6,141.6z" vector-effect="non-scaling-stroke"/>
	<path d="M85.6,173.1c-4.5,0-9,0.2-13.5-0.1c-3.7-0.2-5.4,1.4-6.3,4.8c-1.4,5.1-3,10.2-4.7,15.3c-2,6.1-5.9,8.4-11.3,6.8&#10;&#9;&#9;c-4.7-1.4-6.7-5.9-4.8-11.8c8-25.9,16.1-51.8,24.2-77.7c2.2-7,4.4-14,6.5-21c1.4-4.8,4.8-7.1,9.6-7.4c4.8-0.3,8.7,2.3,10.2,7.1&#10;&#9;&#9;c10.5,33.4,20.9,66.7,31.3,100.1c1.5,4.9-0.7,9.2-4.9,10.6c-4.9,1.6-9.5-0.5-11.2-5.5c-2-5.7-3.8-11.4-5.3-17.2&#10;&#9;&#9;c-0.8-3.2-2.5-4.3-5.7-4.2C94.9,173.2,90.2,173.1,85.6,173.1z M85.5,114.4c-4.1,13.3-7.7,25.3-11.5,37.1c-0.9,2.8-0.3,4.1,2.8,4.1&#10;&#9;&#9;c6,0,12-0.1,18,0c3,0.1,3.3-1.2,2.5-3.7C93.5,140,89.8,127.9,85.5,114.4z" vector-effect="non-scaling-stroke"/>
	<path d="M221.7,141.1c0-15.7,0-31.3,0-47c0-7.9,3-11.1,10.7-11.2c13.2-0.1,26.3-0.1,39.5,0c6.7,0.1,10.4,3.4,10.2,9&#10;&#9;&#9;c-0.2,5.3-3.7,8.1-10.4,8.2c-9.5,0.1-19,0.1-28.5,0c-3.7-0.1-5,1.3-4.9,4.9c0.2,7,0.2,14,0,21c-0.1,3.7,1.4,5,5,4.9&#10;&#9;&#9;c6.2-0.2,12.3-0.1,18.5,0c6.3,0.1,10.1,3.5,9.9,8.8c-0.1,5.1-3.7,8.3-9.8,8.4c-6.3,0.1-12.7,0.2-19,0c-3.5-0.1-4.7,1.3-4.6,4.7&#10;&#9;&#9;c0.2,8.5,0.2,17,0,25.5c-0.1,3.3,1.2,4.4,4.4,4.4c9.7-0.1,19.3-0.1,29,0c6.6,0,10.3,3,10.4,8.2c0.2,5.4-3.6,8.9-10.3,9&#10;&#9;&#9;c-13.2,0.2-26.3,0.2-39.5,0c-7.6-0.1-10.6-3.5-10.6-11.3C221.7,172.7,221.7,156.9,221.7,141.1z" vector-effect="non-scaling-stroke"/>
	<path d="M164.6,165.8c3.7-11.9,7.4-23.8,11.1-35.6c4.2-13.5,8.4-27,12.7-40.5c2-6.3,5.9-8.8,11-7.2c5.1,1.6,7,5.7,5.1,12.1&#10;&#9;&#9;c-10.1,32.8-20.3,65.5-30.5,98.2c-1.7,5.5-4.9,7.4-10.4,7.4c-5.2,0-8.3-2.5-9.8-7.5c-10.1-32.8-20.3-65.5-30.5-98.2&#10;&#9;&#9;c-1.3-4.1-1.5-8,2.5-10.8c3.1-2.2,6.5-2.3,9.9-0.3c2.5,1.5,3.3,4,4.1,6.6c7.2,23.4,14.5,46.7,21.8,70.1c0.6,1.9,1.3,3.7,1.9,5.6&#10;&#9;&#9;C163.8,165.8,164.2,165.8,164.6,165.8z" vector-effect="non-scaling-stroke"/>
	<path d="M344.9,83c12.8-0.9,24.2,1.9,32.5,12.2c13.3,16.5,8.9,40.9-9.4,51.4c-3.5,2-3.8,3.7-2.1,7c5.2,10.6,10.2,21.3,15.3,32&#10;&#9;&#9;c3.2,6.8,2.4,11.5-2.4,13.9c-5.2,2.6-9.7,0.4-13-6.4c-5.9-12.3-11.8-24.6-17.5-37c-1.7-3.7-3.8-5.7-7.9-5.1c-1.6,0.2-3.3,0.1-5-0.2&#10;&#9;&#9;c-4.8-0.8-7.8-4.5-7.6-9c0.3-4.5,3.3-7.6,8.1-7.9c4.8-0.3,9.7-0.1,14.5-0.1c11-0.1,17.4-6.3,17.3-16.8c0-10.2-6.8-16.6-17.6-16.7&#10;&#9;&#9;c-4.5,0-9,0.1-13.5-0.1c-5.4-0.2-8.7-3.3-8.8-8.2c-0.2-4.9,2.9-8.3,8.3-8.8C339.1,82.7,342.1,83,344.9,83z" vector-effect="non-scaling-stroke"/>
	<path d="M315.3,141.4c0,16.3,0,32.6,0,48.9c0,3.9-0.9,7.4-4.7,9.2c-5.1,2.5-10.9-0.2-12.1-5.7c-0.5-2.1-0.5-4.3-0.5-6.4&#10;&#9;&#9;c0-30.6,0-61.3,0-91.9c0-1.8,0-3.7,0.3-5.5c0.8-5.2,4.5-8.3,9.2-7.9c4.5,0.4,7.6,3.7,7.8,8.8c0.2,7,0.1,14,0.1,21&#10;&#9;&#9;C315.3,121.7,315.3,131.5,315.3,141.4z" vector-effect="non-scaling-stroke"/>
</g></g></svg>