<svg version="1.2" xmlns="http://www.w3.org/2000/svg" xmlns:xlink="http://www.w3.org/1999/xlink" overflow="visible" preserveAspectRatio="none" viewBox="0 0 32 32" xml:space="preserve" y="0px" x="0px" id="Camada_1_1552325553707" width="30" height="30"><g transform="translate(1, 1)"><style type="text/css">
	.st0_1552325553707{fill:#464646;}
	.st1{fill:#444444;}
</style><path d="M23.6,13.9L23.6,13.9l-2.2-6.2H8.5l-2.2,6.2h0c0,1.4,0.8,2.5,2,3.1v5.3h13.2V17C22.8,16.5,23.6,15.3,23.6,13.9z&#10;&#9; M9.5,9h11.1l1.3,3.6H8.2L9.5,9z M17,13.9c0,1.1-0.9,2-2,2s-2-0.9-2-2H17z M7.7,13.9h4c0,1.1-0.9,2-2,2S7.7,15,7.7,13.9z M9.7,21&#10;&#9;v-3.7c1.1,0,2-0.5,2.6-1.4c0.6,0.8,1.6,1.4,2.7,1.4s2.1-0.5,2.7-1.4c0.6,0.8,1.6,1.3,2.6,1.4V21H9.7z M20.3,15.9c-1.1,0-2-0.9-2-2h4&#10;&#9;C22.3,15,21.4,15.9,20.3,15.9z" class="st0_1552325553707" vector-effect="non-scaling-stroke" style="fill: rgb(255, 255, 255);"/></g></svg>