<svg version="1.2" xmlns="http://www.w3.org/2000/svg" xmlns:xlink="http://www.w3.org/1999/xlink" overflow="visible" preserveAspectRatio="none" viewBox="0 0 32 32" xml:space="preserve" y="0px" x="0px" id="Camada_1_1552325553702" width="30" height="30"><g transform="translate(1, 1)"><style type="text/css">
	.st0_1552325553702{fill:#464646;}
	.st1{fill:#444444;}
</style><g>
	<path d="M19,8.6V7.2h-1.4v1.4h-5V7.2h-1.4v1.4H6.8v14.2h16.4V8.6H19z M12.6,11.3V10h5v1.4H19V10h2.8v11.4H8.2V10h3.1&#10;&#9;&#9;v1.4H12.6z" class="st0_1552325553702" vector-effect="non-scaling-stroke" style="fill: rgb(255, 255, 255);"/>
	<path d="M11.3,14h-0.8c-0.5,0-0.8,0.4-0.8,0.8s0.4,0.8,0.8,0.8h0.8c0.5,0,0.8-0.4,0.8-0.8S11.8,14,11.3,14z" class="st0_1552325553702" vector-effect="non-scaling-stroke" style="fill: rgb(255, 255, 255);"/>
	<path d="M15.4,14h-0.8c-0.5,0-0.8,0.4-0.8,0.8s0.4,0.8,0.8,0.8h0.8c0.5,0,0.8-0.4,0.8-0.8S15.8,14,15.4,14z" class="st0_1552325553702" vector-effect="non-scaling-stroke" style="fill: rgb(255, 255, 255);"/>
	<path d="M19.4,14h-0.8c-0.5,0-0.8,0.4-0.8,0.8s0.4,0.8,0.8,0.8h0.8c0.5,0,0.8-0.4,0.8-0.8S19.9,14,19.4,14z" class="st0_1552325553702" vector-effect="non-scaling-stroke" style="fill: rgb(255, 255, 255);"/>
	<path d="M11.3,17h-0.8c-0.5,0-0.8,0.4-0.8,0.8s0.4,0.8,0.8,0.8h0.8c0.5,0,0.8-0.4,0.8-0.8S11.8,17,11.3,17z" class="st0_1552325553702" vector-effect="non-scaling-stroke" style="fill: rgb(255, 255, 255);"/>
	<path d="M15.4,17h-0.8c-0.5,0-0.8,0.4-0.8,0.8s0.4,0.8,0.8,0.8h0.8c0.5,0,0.8-0.4,0.8-0.8S15.8,17,15.4,17z" class="st0_1552325553702" vector-effect="non-scaling-stroke" style="fill: rgb(255, 255, 255);"/>
	<path d="M19.4,17h-0.8c-0.5,0-0.8,0.4-0.8,0.8s0.4,0.8,0.8,0.8h0.8c0.5,0,0.8-0.4,0.8-0.8S19.9,17,19.4,17z" class="st0_1552325553702" vector-effect="non-scaling-stroke" style="fill: rgb(255, 255, 255);"/>
</g></g></svg>